<svg id="레이어_1" data-name="레이어 1" xmlns="http://www.w3.org/2000/svg" viewBox="0 0 1262.4 299.12"><path d="M85.12,434.34V135.22h38.67V249.77q28.71-23.13,62.69-23.14,42.78,0,72.37,30.47,29,30.18,29,73.53V434.34H249.18V330.63q0-27.24-17.87-46.29-18.17-19-44.83-19t-44.82,19q-17.88,19.05-17.87,46.29V434.34Z" transform="translate(-85.12 -135.22)"/><path d="M556.5,434.05H517.83V410.61q-29,23.73-65.33,23.73-42.78,0-73.24-30.46t-30.47-73.25q0-43.06,30.47-73.53t73.24-30.47q43.06,0,73.54,30.47t30.46,73.53Zm-104-38.38q27,0,46.29-19,19-19,19-46t-19-46.29q-19.34-19-46.29-19a62.7,62.7,0,0,0-46,19q-19,19.34-19,46.29t19,46Q425.55,395.68,452.5,395.67Z" transform="translate(-85.12 -135.22)"/><path d="M612.46,434.34V330.63q0-43.06,30.47-73.53t73.24-30.47q43.07,0,73.54,30.47t30.47,73.53V434.34H781.5V330.63q0-26.94-19.33-46.29a65.08,65.08,0,0,0-92,0q-19,19.34-19,46.29V434.34Z" transform="translate(-85.12 -135.22)"/><path d="M1083.85,330.63q0,42.78-30.47,73.25t-73.54,30.46q-42.76,0-73.24-30.46t-30.47-73.25q0-43.06,30.47-73.53t73.24-30.47q36.33,0,65.34,23.73V135.22h38.67Zm-104,65q27.25,0,46.29-19t19-46q0-26.94-19-46.29-19.34-19-46.29-19a62.66,62.66,0,0,0-46,19q-19.05,19.34-19.05,46.29t19.05,46Q952.89,395.68,979.84,395.67Z" transform="translate(-85.12 -135.22)"/><path d="M1347.52,434.05h-38.67V410.61q-29,23.73-65.33,23.73-42.78,0-73.25-30.46t-30.47-73.25q0-43.06,30.47-73.53t73.25-30.47q43.07,0,73.53,30.47t30.47,73.53Zm-104-38.38q26.94,0,46.28-19,19-19,19-46t-19-46.29q-19.33-19-46.28-19t-46,19q-19.05,19.34-19,46.29t19,46Q1216.56,395.68,1243.52,395.67Z" transform="translate(-85.12 -135.22)"/></svg>